<mxfile host="app.diagrams.net" agent="Mozilla/5.0 (Windows NT 10.0; Win64; x64) AppleWebKit/537.36 (KHTML, like Gecko) Chrome/127.0.0.0 Safari/537.36" version="24.7.6">
  <diagram name="Page-1" id="yxq2BXI2TOel0MOsgUAC">
    <mxGraphModel dx="1418" dy="867" grid="1" gridSize="10" guides="1" tooltips="1" connect="1" arrows="1" fold="1" page="1" pageScale="1" pageWidth="900" pageHeight="1600" math="0" shadow="0">
      <root>
        <mxCell id="0" />
        <mxCell id="1" parent="0" />
        <mxCell id="TEE0BWzjZ7pn4WNWhBBG-1" value="start" style="ellipse;whiteSpace=wrap;html=1;aspect=fixed;" vertex="1" parent="1">
          <mxGeometry x="385" y="81" width="80" height="80" as="geometry" />
        </mxCell>
        <mxCell id="TEE0BWzjZ7pn4WNWhBBG-19" value="" style="edgeStyle=orthogonalEdgeStyle;rounded=0;orthogonalLoop=1;jettySize=auto;html=1;" edge="1" parent="1" target="TEE0BWzjZ7pn4WNWhBBG-4">
          <mxGeometry relative="1" as="geometry">
            <mxPoint x="425" y="251" as="sourcePoint" />
          </mxGeometry>
        </mxCell>
        <mxCell id="TEE0BWzjZ7pn4WNWhBBG-20" value="" style="edgeStyle=orthogonalEdgeStyle;rounded=0;orthogonalLoop=1;jettySize=auto;html=1;" edge="1" parent="1" source="TEE0BWzjZ7pn4WNWhBBG-4" target="TEE0BWzjZ7pn4WNWhBBG-5">
          <mxGeometry relative="1" as="geometry" />
        </mxCell>
        <mxCell id="TEE0BWzjZ7pn4WNWhBBG-4" value="locate an ATM" style="rounded=0;whiteSpace=wrap;html=1;" vertex="1" parent="1">
          <mxGeometry x="365" y="190" width="120" height="60" as="geometry" />
        </mxCell>
        <mxCell id="TEE0BWzjZ7pn4WNWhBBG-21" value="" style="edgeStyle=orthogonalEdgeStyle;rounded=0;orthogonalLoop=1;jettySize=auto;html=1;" edge="1" parent="1" source="TEE0BWzjZ7pn4WNWhBBG-5" target="TEE0BWzjZ7pn4WNWhBBG-6">
          <mxGeometry relative="1" as="geometry" />
        </mxCell>
        <mxCell id="TEE0BWzjZ7pn4WNWhBBG-5" value="enter your card" style="shape=parallelogram;perimeter=parallelogramPerimeter;whiteSpace=wrap;html=1;fixedSize=1;" vertex="1" parent="1">
          <mxGeometry x="360" y="330" width="120" height="60" as="geometry" />
        </mxCell>
        <mxCell id="TEE0BWzjZ7pn4WNWhBBG-22" value="" style="edgeStyle=orthogonalEdgeStyle;rounded=0;orthogonalLoop=1;jettySize=auto;html=1;" edge="1" parent="1" source="TEE0BWzjZ7pn4WNWhBBG-6" target="TEE0BWzjZ7pn4WNWhBBG-7">
          <mxGeometry relative="1" as="geometry" />
        </mxCell>
        <mxCell id="TEE0BWzjZ7pn4WNWhBBG-6" value="sprinkle salt and pepper on top of fish" style="rounded=0;whiteSpace=wrap;html=1;" vertex="1" parent="1">
          <mxGeometry x="360" y="461" width="120" height="60" as="geometry" />
        </mxCell>
        <mxCell id="TEE0BWzjZ7pn4WNWhBBG-23" value="" style="edgeStyle=orthogonalEdgeStyle;rounded=0;orthogonalLoop=1;jettySize=auto;html=1;" edge="1" parent="1" source="TEE0BWzjZ7pn4WNWhBBG-7" target="TEE0BWzjZ7pn4WNWhBBG-8">
          <mxGeometry relative="1" as="geometry" />
        </mxCell>
        <mxCell id="TEE0BWzjZ7pn4WNWhBBG-7" value="&lt;font style=&quot;font-size: 13px;&quot;&gt;receive 2tablespoons of butter&lt;/font&gt;" style="shape=parallelogram;perimeter=parallelogramPerimeter;whiteSpace=wrap;html=1;fixedSize=1;" vertex="1" parent="1">
          <mxGeometry x="360" y="551" width="120" height="60" as="geometry" />
        </mxCell>
        <mxCell id="TEE0BWzjZ7pn4WNWhBBG-24" value="" style="edgeStyle=orthogonalEdgeStyle;rounded=0;orthogonalLoop=1;jettySize=auto;html=1;" edge="1" parent="1" source="TEE0BWzjZ7pn4WNWhBBG-8" target="TEE0BWzjZ7pn4WNWhBBG-9">
          <mxGeometry relative="1" as="geometry" />
        </mxCell>
        <mxCell id="TEE0BWzjZ7pn4WNWhBBG-8" value="receive pan" style="shape=parallelogram;perimeter=parallelogramPerimeter;whiteSpace=wrap;html=1;fixedSize=1;" vertex="1" parent="1">
          <mxGeometry x="360" y="641" width="120" height="60" as="geometry" />
        </mxCell>
        <mxCell id="TEE0BWzjZ7pn4WNWhBBG-25" value="" style="edgeStyle=orthogonalEdgeStyle;rounded=0;orthogonalLoop=1;jettySize=auto;html=1;" edge="1" parent="1" source="TEE0BWzjZ7pn4WNWhBBG-9" target="TEE0BWzjZ7pn4WNWhBBG-10">
          <mxGeometry relative="1" as="geometry" />
        </mxCell>
        <mxCell id="TEE0BWzjZ7pn4WNWhBBG-9" value="warm the butter in the pan" style="rounded=0;whiteSpace=wrap;html=1;" vertex="1" parent="1">
          <mxGeometry x="360" y="741" width="120" height="60" as="geometry" />
        </mxCell>
        <mxCell id="TEE0BWzjZ7pn4WNWhBBG-26" value="" style="edgeStyle=orthogonalEdgeStyle;rounded=0;orthogonalLoop=1;jettySize=auto;html=1;" edge="1" parent="1" source="TEE0BWzjZ7pn4WNWhBBG-10" target="TEE0BWzjZ7pn4WNWhBBG-11">
          <mxGeometry relative="1" as="geometry" />
        </mxCell>
        <mxCell id="TEE0BWzjZ7pn4WNWhBBG-10" value="lay the seasoned side of the fish in the pan" style="rounded=0;whiteSpace=wrap;html=1;" vertex="1" parent="1">
          <mxGeometry x="360" y="831" width="120" height="60" as="geometry" />
        </mxCell>
        <mxCell id="TEE0BWzjZ7pn4WNWhBBG-27" value="" style="edgeStyle=orthogonalEdgeStyle;rounded=0;orthogonalLoop=1;jettySize=auto;html=1;" edge="1" parent="1" source="TEE0BWzjZ7pn4WNWhBBG-11" target="TEE0BWzjZ7pn4WNWhBBG-12">
          <mxGeometry relative="1" as="geometry" />
        </mxCell>
        <mxCell id="TEE0BWzjZ7pn4WNWhBBG-11" value="cook the fish for 5 minutes meanwhile season the other side" style="rounded=0;whiteSpace=wrap;html=1;" vertex="1" parent="1">
          <mxGeometry x="360" y="921" width="120" height="60" as="geometry" />
        </mxCell>
        <mxCell id="TEE0BWzjZ7pn4WNWhBBG-28" value="" style="edgeStyle=orthogonalEdgeStyle;rounded=0;orthogonalLoop=1;jettySize=auto;html=1;" edge="1" parent="1" source="TEE0BWzjZ7pn4WNWhBBG-12" target="TEE0BWzjZ7pn4WNWhBBG-13">
          <mxGeometry relative="1" as="geometry" />
        </mxCell>
        <mxCell id="TEE0BWzjZ7pn4WNWhBBG-12" value="flip the fish" style="rounded=0;whiteSpace=wrap;html=1;" vertex="1" parent="1">
          <mxGeometry x="360" y="1013" width="120" height="60" as="geometry" />
        </mxCell>
        <mxCell id="TEE0BWzjZ7pn4WNWhBBG-29" value="NO" style="edgeStyle=orthogonalEdgeStyle;rounded=0;orthogonalLoop=1;jettySize=auto;html=1;" edge="1" parent="1" source="TEE0BWzjZ7pn4WNWhBBG-13" target="TEE0BWzjZ7pn4WNWhBBG-15">
          <mxGeometry relative="1" as="geometry" />
        </mxCell>
        <mxCell id="TEE0BWzjZ7pn4WNWhBBG-30" value="YES" style="edgeStyle=orthogonalEdgeStyle;rounded=0;orthogonalLoop=1;jettySize=auto;html=1;" edge="1" parent="1" source="TEE0BWzjZ7pn4WNWhBBG-13" target="TEE0BWzjZ7pn4WNWhBBG-14">
          <mxGeometry relative="1" as="geometry" />
        </mxCell>
        <mxCell id="TEE0BWzjZ7pn4WNWhBBG-13" value="&lt;font style=&quot;font-size: 11px;&quot;&gt;if the side is golden&lt;/font&gt;" style="rhombus;whiteSpace=wrap;html=1;" vertex="1" parent="1">
          <mxGeometry x="380" y="1105" width="80" height="80" as="geometry" />
        </mxCell>
        <mxCell id="TEE0BWzjZ7pn4WNWhBBG-33" value="" style="edgeStyle=orthogonalEdgeStyle;rounded=0;orthogonalLoop=1;jettySize=auto;html=1;" edge="1" parent="1" source="TEE0BWzjZ7pn4WNWhBBG-14" target="TEE0BWzjZ7pn4WNWhBBG-16">
          <mxGeometry relative="1" as="geometry" />
        </mxCell>
        <mxCell id="TEE0BWzjZ7pn4WNWhBBG-14" value="cook the other side for 5 minutes" style="rounded=0;whiteSpace=wrap;html=1;" vertex="1" parent="1">
          <mxGeometry x="360" y="1225" width="120" height="60" as="geometry" />
        </mxCell>
        <mxCell id="TEE0BWzjZ7pn4WNWhBBG-15" value="cook the fish for 2 more minutes" style="rounded=0;whiteSpace=wrap;html=1;" vertex="1" parent="1">
          <mxGeometry x="190" y="1114" width="120" height="60" as="geometry" />
        </mxCell>
        <mxCell id="TEE0BWzjZ7pn4WNWhBBG-34" value="" style="edgeStyle=orthogonalEdgeStyle;rounded=0;orthogonalLoop=1;jettySize=auto;html=1;" edge="1" parent="1" source="TEE0BWzjZ7pn4WNWhBBG-16" target="TEE0BWzjZ7pn4WNWhBBG-17">
          <mxGeometry relative="1" as="geometry" />
        </mxCell>
        <mxCell id="TEE0BWzjZ7pn4WNWhBBG-16" value="the fish is ready." style="rounded=0;whiteSpace=wrap;html=1;" vertex="1" parent="1">
          <mxGeometry x="360" y="1323" width="120" height="60" as="geometry" />
        </mxCell>
        <mxCell id="TEE0BWzjZ7pn4WNWhBBG-17" value="serve it hot." style="ellipse;whiteSpace=wrap;html=1;aspect=fixed;" vertex="1" parent="1">
          <mxGeometry x="380" y="1420" width="80" height="80" as="geometry" />
        </mxCell>
        <mxCell id="TEE0BWzjZ7pn4WNWhBBG-32" value="" style="endArrow=classic;html=1;rounded=0;entryX=0;entryY=0;entryDx=0;entryDy=0;exitX=1;exitY=1;exitDx=0;exitDy=0;" edge="1" parent="1" source="TEE0BWzjZ7pn4WNWhBBG-15" target="TEE0BWzjZ7pn4WNWhBBG-14">
          <mxGeometry width="50" height="50" relative="1" as="geometry">
            <mxPoint x="320" y="1171" as="sourcePoint" />
            <mxPoint x="360" y="1230" as="targetPoint" />
          </mxGeometry>
        </mxCell>
      </root>
    </mxGraphModel>
  </diagram>
</mxfile>
